<svg id="close-button-icon" xmlns="http://www.w3.org/2000/svg" width="22.922" height="21.051" viewBox="0 0 22.922 21.051">
  <g id="Group_9" data-name="Group 9" transform="translate(-0.487 0)">
    <path id="Path_93" data-name="Path 93" d="M3,1.545l20.537,1.76-3-1.545L0,0Z" transform="matrix(-0.809, -0.588, 0.588, -0.809, 19.527, 21.051)" fill="#fdffff"/>
    <path id="Path_92" data-name="Path 92" d="M3.112,2.431,23.649.671l-3,1.545L.115,3.976Z" transform="matrix(-0.809, 0.588, -0.588, -0.809, 21.957, 3.149)" fill="#fdffff"/>
    <path id="Path_90" data-name="Path 90" d="M3.112,2.431,23.649.671l-3,1.545L.115,3.976Z" transform="matrix(0.809, -0.588, 0.588, 0.809, 1.94, 17.901)" fill="#fdffff"/>
    <path id="Path_91" data-name="Path 91" d="M3,1.545l20.537,1.76-3-1.545L0,0Z" transform="matrix(0.809, 0.588, -0.588, 0.809, 4.37, 0)" fill="#fdffff"/>
  </g>
  <path id="Path_97" data-name="Path 97" d="M0,0,4.321.93l.93,4.321L.93,4.321Z" transform="translate(11.461 6.812) rotate(45)"/>
  <g id="Group_10" data-name="Group 10" transform="translate(3.796 2.702)">
    <line id="Line_6" data-name="Line 6" x2="21.681" transform="translate(15.331 0) rotate(135)" fill="none" stroke="#e50000" stroke-width="2"/>
    <line id="Line_7" data-name="Line 7" x2="21.681" transform="translate(0 0.315) rotate(45)" fill="none" stroke="#e50000" stroke-width="2"/>
  </g>
</svg>
