<svg xmlns="http://www.w3.org/2000/svg" width="19" height="19" viewBox="0 0 19 19">
  <g id="ctrl-expand" transform="translate(-3.25 -3.25)">
    <path id="Path_209" data-name="Path 209" d="M19.266,11.7l2.784-2.78L19.876,6.75h5.577v5.577l-2.174-2.174L20.5,12.937Z" transform="translate(-3.702 -3)" fill="none" stroke="#fff" stroke-width="1"/>
    <path id="Path_210" data-name="Path 210" d="M19.266,20.5l2.784,2.78-2.174,2.174h5.577V19.876L23.278,22.05,20.5,19.266Z" transform="translate(-3.702 -3.702)" fill="none" stroke="#fff" stroke-width="1"/>
    <path id="Path_211" data-name="Path 211" d="M12.937,20.5l-2.784,2.78,2.174,2.174H6.75V19.876L8.924,22.05l2.78-2.784Z" transform="translate(-3 -4.322)" fill="none" stroke="#fff" stroke-width="1"/>
    <path id="Path_212" data-name="Path 212" d="M12.937,11.7l-2.784-2.78L12.327,6.75H6.75v5.577l2.174-2.174,2.78,2.784Z" transform="translate(-3 -3)" fill="none" stroke="#fff" stroke-width="1"/>
  </g>
</svg>
