<svg xmlns="http://www.w3.org/2000/svg" width="974.273" height="509.329" viewBox="0 0 974.273 509.329">
  <g id="dsk-intro-letter" transform="translate(-353 157.898)">
    <g id="Black-Logo" transform="translate(844.717 -157.898)">
      <path id="Path_1" data-name="Path 1" d="M206.829,418.768q15.765-55.178,53.727-95.451,65.1-69.04,170.562-69.04,111.579,0,179.259,72.121a235.761,235.761,0,0,1,29.9,39.322,229.941,229.941,0,0,1,15.086,29.356h-127.3c-.363-.544-.724-1.042-1.133-1.54A114.412,114.412,0,0,0,495.9,365.72c-17.622-10.646-38.235-15.991-61.7-15.991q-56.673,0-89.29,42.584-29.016,37.917-32.255,102.7c-.272,5.346-.408,10.827-.408,16.49,0,4.394.091,8.653.317,12.866H196c-.362-6.252-.5-12.594-.5-19.027q0-47.159,11.326-86.572ZM338.295,615.922a123.2,123.2,0,0,0,7.611,10.465q33.7,41.383,91.056,41.406,55.586,0,89.969-42.584,34.316-42.606,34.339-115.746,0-11.824-.952-22.832a209.83,209.83,0,0,0-4.349-29.356H673.438a349.508,349.508,0,0,1,4.62,58.032q0,45.529-11.325,83.99a226.738,226.738,0,0,1-55.313,95.451Q544.827,763.584,439,763.606q-108.521,0-176.044-71.079a231.923,231.923,0,0,1-48.427-76.6,261.308,261.308,0,0,1-9.423-29.356H323.843a135.2,135.2,0,0,0,14.452,29.356Z" transform="translate(-195.503 -254.277)" fill="#fff"/>
    </g>
    <g id="Black-Logo-2" data-name="Black-Logo" transform="translate(353 -157.898)">
      <path id="Path_1-2" data-name="Path 1" d="M666.733,418.768q-15.765-55.178-53.727-95.451-65.1-69.04-170.562-69.04-111.579,0-179.259,72.121a235.765,235.765,0,0,0-29.9,39.322A229.929,229.929,0,0,0,218.2,395.076H345.5c.363-.544.724-1.042,1.133-1.54a114.412,114.412,0,0,1,31.032-27.815c17.623-10.646,38.235-15.991,61.7-15.991q56.673,0,89.29,42.584,29.016,37.917,32.256,102.7c.271,5.346.408,10.827.408,16.49,0,4.394-.091,8.653-.317,12.866H677.561c.362-6.252.5-12.594.5-19.027q0-47.159-11.326-86.572ZM535.267,615.922a123.239,123.239,0,0,1-7.611,10.465q-33.7,41.383-91.056,41.406-55.586,0-89.969-42.584Q312.314,582.6,312.291,509.463q0-11.824.952-22.832a209.807,209.807,0,0,1,4.349-29.356H200.124a349.518,349.518,0,0,0-4.62,58.032q0,45.529,11.325,83.99a226.738,226.738,0,0,0,55.313,95.451q66.593,68.836,172.419,68.859,108.521,0,176.044-71.079a231.924,231.924,0,0,0,48.427-76.6,261.289,261.289,0,0,0,9.423-29.356H549.719a135.2,135.2,0,0,1-14.452,29.356Z" transform="translate(-195.503 -254.277)" fill="#fff"/>
    </g>
  </g>
</svg>
