<svg xmlns="http://www.w3.org/2000/svg" width="1524.723" height="1539.32" viewBox="0 0 1524.723 1539.32">
  <g id="dsk-submit-letter" transform="translate(0 -70)">
    <path id="Path_1" data-name="Path 1" d="M1684.439,844.018q-49.811-174.344-169.762-301.6Q1308.984,324.278,975.755,324.277q-352.553,0-566.4,227.879A744.943,744.943,0,0,0,314.881,676.4a726.507,726.507,0,0,0-47.667,92.755H669.438c1.146-1.718,2.289-3.293,3.579-4.867q42.941-54.751,98.05-87.888c55.682-33.638,120.811-50.528,194.956-50.528q179.069,0,282.128,134.551,91.682,119.807,101.918,324.5c.858,16.89,1.288,34.21,1.288,52.1,0,13.884-.286,27.339-1,40.651h368.3c1.145-19.753,1.573-39.792,1.573-60.119q0-149.009-35.786-273.54ZM1269.05,1396.962A389.422,389.422,0,0,1,1245,1430.027q-106.495,130.758-287.71,130.83-175.633,0-284.275-134.552-108.429-134.623-108.5-365.721,0-37.359,3.007-72.143a662.951,662.951,0,0,1,13.741-92.754H210.1q-14.6,86.742-14.6,183.362,0,143.856,35.785,265.382,50.886,173.7,174.773,301.594,210.414,217.5,544.789,217.572,342.893,0,556.242-224.587,100.052-105.421,153.015-242.047a825.563,825.563,0,0,0,29.774-92.755H1314.713c-12.025,33.781-27.2,64.843-45.662,92.755Z" transform="translate(-195.503 -254.277)" fill="#fff"/>
  </g>
</svg>
