<svg xmlns="http://www.w3.org/2000/svg" width="1169.012" height="773.137" viewBox="0 0 1169.012 773.137">
  <g id="dsk-works-hero" transform="translate(-1446 283)">
    <g id="Black-Logo" transform="translate(1446 -53)">
      <path id="Path_1" data-name="Path 1" d="M864.437,223.562q-22.379-66.849-76.269-115.641Q695.757,24.277,546.047,24.277q-158.391,0-254.467,87.376a295.417,295.417,0,0,0-42.444,47.639,266.132,266.132,0,0,0-21.415,35.565H408.428a23.852,23.852,0,0,1,1.608-1.866,156.814,156.814,0,0,1,44.051-33.7c25.016-12.9,54.277-19.374,87.588-19.374q80.451,0,126.752,51.591,41.19,45.938,45.788,124.422c.385,6.476.579,13.117.579,19.978,0,5.324-.129,10.483-.45,15.587H879.809c.514-7.574.707-15.257.707-23.051q0-57.135-16.078-104.884ZM677.816,618.492a152.9,152.9,0,0,1-10.8,12.678q-47.845,50.137-129.259,50.164-78.907,0-127.716-51.591-48.714-51.619-48.746-140.229a274.622,274.622,0,0,1,1.351-27.662,219.657,219.657,0,0,1,6.173-35.565H202.062a362.919,362.919,0,0,0-6.559,70.307q0,55.159,16.077,101.755,22.861,66.6,78.52,115.64,94.533,83.4,244.758,83.424,154.052,0,249.9-86.114,44.95-40.422,68.745-92.809a284.465,284.465,0,0,0,13.376-35.565H698.331a155.465,155.465,0,0,1-20.515,35.565Z" transform="translate(-195.503 -254.277)" fill="#fff"/>
    </g>
    <g id="Black-Logo-2" data-name="Black-Logo" transform="translate(1930 -283)">
      <path id="Path_1-2" data-name="Path 1" d="M211.581,223.562q22.379-66.849,76.269-115.641,92.412-83.643,242.122-83.644,158.391,0,254.467,87.376a295.415,295.415,0,0,1,42.444,47.639A266.13,266.13,0,0,1,848.3,194.857H667.591a23.839,23.839,0,0,0-1.608-1.866,156.813,156.813,0,0,0-44.051-33.7c-25.016-12.9-54.277-19.374-87.588-19.374q-80.451,0-126.752,51.591Q366.4,237.447,361.8,315.932c-.385,6.476-.579,13.117-.579,19.978,0,5.324.129,10.483.45,15.587H196.21c-.514-7.574-.707-15.257-.707-23.051q0-57.135,16.078-104.884ZM398.2,618.492a152.9,152.9,0,0,0,10.8,12.678q47.845,50.137,129.259,50.164,78.907,0,127.716-51.591,48.714-51.619,48.746-140.229a274.622,274.622,0,0,0-1.351-27.662,219.663,219.663,0,0,0-6.173-35.565H873.957a362.919,362.919,0,0,1,6.559,70.307q0,55.159-16.077,101.755-22.861,66.6-78.52,115.64-94.533,83.4-244.758,83.424-154.052,0-249.9-86.114-44.95-40.422-68.745-92.809a284.465,284.465,0,0,1-13.376-35.565H377.688A155.465,155.465,0,0,0,398.2,618.492Z" transform="translate(-195.503 -24.277)" fill="#fff"/>
    </g>
  </g>
</svg>
