<svg xmlns="http://www.w3.org/2000/svg" width="927.435" height="978.892" viewBox="0 0 927.435 978.892">
  <g id="dsktp-hero-letter" transform="translate(0)">
    <path id="Path_1" data-name="Path 1" d="M1101.17,570.417q-30.3-106.048-103.26-183.45Q872.794,254.277,670.1,254.277q-214.445,0-344.521,138.611a453.13,453.13,0,0,0-57.465,75.574,441.925,441.925,0,0,0-28.994,56.419H483.781c.7-1.045,1.392-2,2.177-2.96q26.12-33.3,59.64-53.459c33.869-20.46,73.485-30.734,118.585-30.734q108.922,0,171.609,81.843,55.767,72.874,61.993,197.38c.522,10.274.784,20.809.784,31.692,0,8.445-.174,16.63-.609,24.727h224.023c.7-12.015.957-24.2.957-36.568q0-90.637-21.767-166.385ZM848.5,949.331a236.883,236.883,0,0,1-14.628,20.112q-64.777,79.535-175,79.579-106.832,0-172.914-81.843-65.953-81.887-66-222.455,0-22.724,1.829-43.882a403.23,403.23,0,0,1,8.358-56.419H204.383a671.749,671.749,0,0,0-8.88,111.533q0,87.5,21.767,161.422,30.952,105.655,106.308,183.448,127.987,132.3,331.376,132.342,208.57,0,338.342-136.608a445.745,445.745,0,0,0,93.074-147.229,502.134,502.134,0,0,0,18.11-56.42h-228.2a259.845,259.845,0,0,1-27.775,56.42Z" transform="translate(-195.503 -254.277)" fill="#fff"/>
  </g>
</svg>
