<svg xmlns="http://www.w3.org/2000/svg" width="33.178" height="33.04" viewBox="0 0 33.178 33.04">
  <g id="Facebook-Black" transform="translate(0.5 0.5)">
    <path id="Path_54" data-name="Path 54" d="M397.885,1092.291a16.054,16.054,0,0,1-14.256,15.917,16.324,16.324,0,0,1-1.834.1h-.12a16.02,16.02,0,1,1,16.209-16.019" transform="translate(-365.707 -1076.27)" fill="none" stroke="#ddd" stroke-width="1"/>
    <path id="Path_55" data-name="Path 55" d="M509.25,1152.258v3.2H513.5l-.572,4.32H509.25v10.4a14.964,14.964,0,0,1-2.7.562,15.177,15.177,0,0,1-1.718.1h-.112v-11.058h-3.677v-4.32h3.677v-3.668a5.231,5.231,0,0,1,5-5.226,16.021,16.021,0,0,1,2.235.058l1.651.16v3.856h-2.734a1.622,1.622,0,0,0-1.622,1.622" transform="translate(-490.983 -1143.064)" fill="#fff"/>
  </g>
</svg>
