<svg xmlns="http://www.w3.org/2000/svg" width="33.178" height="33.04" viewBox="0 0 33.178 33.04">
  <g id="Google-black" transform="translate(0.5 0.5)">
    <path id="Path_62" data-name="Path 62" d="M2238.029,1092.291a16.055,16.055,0,0,1-14.257,15.917,16.314,16.314,0,0,1-1.833.1h-.119a16.206,16.206,0,0,1-3.189-.339,16.029,16.029,0,1,1,19.4-15.68" transform="translate(-2205.85 -1076.27)" fill="none" stroke="#ddd" stroke-width="1"/>
    <path id="Path_63" data-name="Path 63" d="M2309.478,1169.137c0-.067,0-.134-.005-.2s0-.111-.008-.166-.006-.118-.01-.178-.007-.1-.011-.148c0-.024,0-.046-.007-.069s-.006-.073-.009-.11c-.008-.07-.015-.14-.024-.21-.007-.054-.014-.109-.022-.164h-10.428v4.319h5.628a6.363,6.363,0,0,1-11.127.232,6.276,6.276,0,0,1-.407-5.427,6.362,6.362,0,0,1,9.956-2.557l2.967-2.946a10.563,10.563,0,0,0-16.73,3.765,10.421,10.421,0,0,0,.527,9.129,10.547,10.547,0,0,0,19.3-2.2c0-.007,0-.015.006-.022.01-.032.019-.063.027-.1s.016-.055.024-.084c.028-.107.055-.213.08-.322.013-.056.026-.11.038-.166l.006-.027c.009-.044.018-.087.027-.132,0-.016.006-.032.01-.048.021-.108.041-.219.059-.33.009-.055.018-.111.025-.166l.013-.092c0-.023.007-.046.01-.068s.007-.062.011-.094.007-.06.01-.09.005-.045.007-.066c.007-.056.012-.112.016-.168s.01-.109.014-.163c0-.031,0-.062.007-.093s0-.068.005-.1c0-.012,0-.024,0-.035,0-.044,0-.088.007-.131,0-.024,0-.049,0-.073,0-.113.006-.225.006-.339,0-.055,0-.112,0-.168" transform="translate(-2282.865 -1153.286)" fill="#fff"/>
  </g>
</svg>
