<svg xmlns="http://www.w3.org/2000/svg" width="33.178" height="33.04" viewBox="0 0 33.178 33.04">
  <g id="Instagram-black" transform="translate(0.5 0.5)">
    <path id="Path_56" data-name="Path 56" d="M1011.268,1092.291a16.054,16.054,0,0,1-14.256,15.917,16.343,16.343,0,0,1-1.834.1h-.119a16.02,16.02,0,1,1,16.209-16.019" transform="translate(-979.09 -1076.27)" fill="none" stroke="#ddd" stroke-width="1"/>
    <g id="Group_5" data-name="Group 5" transform="translate(5.229 4.286)">
      <path id="Path_57" data-name="Path 57" d="M1068.354,1162.694a3.993,3.993,0,0,1-3.989,3.989H1053.8a3.993,3.993,0,0,1-3.988-3.989v-10.563a3.992,3.992,0,0,1,3.988-3.988h10.563a3.992,3.992,0,0,1,3.989,3.988Zm-3.989-16.144H1053.8a5.583,5.583,0,0,0-5.583,5.582v10.563a5.582,5.582,0,0,0,5.583,5.582h10.563a5.589,5.589,0,0,0,5.583-5.582v-10.563a5.588,5.588,0,0,0-5.583-5.582" transform="translate(-1048.22 -1146.55)" fill="#fff"/>
      <path id="Path_58" data-name="Path 58" d="M1109.977,1213.033a4.736,4.736,0,1,1,4.736-4.736A4.74,4.74,0,0,1,1109.977,1213.033Zm0-11.4a6.666,6.666,0,1,0,6.667,6.667,6.675,6.675,0,0,0-6.667-6.667" transform="translate(-1099.113 -1197.433)" fill="#fff"/>
      <path id="Path_59" data-name="Path 59" d="M1213.59,1187.91a1.49,1.49,0,1,1-1.49-1.49,1.49,1.49,0,0,1,1.49,1.49" transform="translate(-1195.235 -1182.645)" fill="#fff"/>
    </g>
  </g>
</svg>
