<svg xmlns="http://www.w3.org/2000/svg" width="33.179" height="33.04" viewBox="0 0 33.179 33.04">
  <g id="Linkedin-black" transform="translate(0.5 0.5)">
    <path id="Path_72" data-name="Path 72" d="M5304.929,1092.29a16.09,16.09,0,1,1-16.089-16.02,16,16,0,0,1,16.089,16.02" transform="translate(-5272.75 -1076.27)" fill="none" stroke="#ddd" stroke-width="1"/>
    <g id="Group_6" data-name="Group 6" transform="translate(5.229 5.229)">
      <path id="Path_73" data-name="Path 73" d="M5353.609,1155.795a2.754,2.754,0,1,1-2.753-2.775,2.756,2.756,0,0,1,2.753,2.775" transform="translate(-5348.101 -1153.02)" fill="#fff"/>
      <path id="Path_74" data-name="Path 74" d="M5428.043,1221.226v-2.339h-4.463v15.161h4.463q0-3.146,0-6.293c0-.541-.014-1.082.015-1.623a4.417,4.417,0,0,1,.237-1.278,2.449,2.449,0,0,1,1.178-1.421,2.948,2.948,0,0,1,1.42-.3,2.615,2.615,0,0,1,.989.181,2.165,2.165,0,0,1,1.207,1.324,4.988,4.988,0,0,1,.281,1.767q.009,3.823,0,7.646h4.64q0-4.512,0-9.027a10.925,10.925,0,0,0-.064-1.251,6.817,6.817,0,0,0-.436-1.784,4.652,4.652,0,0,0-2.194-2.475,5.881,5.881,0,0,0-2.6-.622,5.686,5.686,0,0,0-1.158.085,5.173,5.173,0,0,0-2.875,1.533,4.878,4.878,0,0,0-.647.825v-.108" transform="translate(-5416.409 -1212.729)" fill="#fff"/>
      <path id="Path_75" data-name="Path 75" d="M5356.92,1218.89h-4.66v15.161h4.66V1218.89" transform="translate(-5351.838 -1212.732)" fill="#fff"/>
    </g>
  </g>
</svg>
