<svg xmlns="http://www.w3.org/2000/svg" width="490.591" height="657.811" viewBox="0 0 490.591 657.811">
  <path id="mb-hero-letter" d="M674.579,421.507q-16.027-56.1-54.622-97.041-66.183-70.19-173.4-70.19-113.436,0-182.244,73.322a239.692,239.692,0,0,0-30.4,39.977,233.769,233.769,0,0,0-15.337,29.845H348c.369-.553.736-1.059,1.151-1.566A116.318,116.318,0,0,1,380.7,367.575c17.916-10.823,38.872-16.258,62.729-16.258q57.617,0,90.777,43.293,29.5,38.549,32.793,104.409c.276,5.434.414,11.007.414,16.764,0,4.467-.092,8.8-.322,13.08h118.5c.368-6.356.506-12.8.506-19.344q0-47.945-11.514-88.013ZM540.925,761.944a125.288,125.288,0,0,1-7.738,10.639q-34.265,42.072-92.573,42.1-56.511,0-91.467-43.293-34.888-43.316-34.911-117.673,0-12.02.968-23.212a213.283,213.283,0,0,1,4.421-29.844H200.2a355.34,355.34,0,0,0-4.7,59q0,46.287,11.514,85.388a230.511,230.511,0,0,0,56.235,97.04q67.7,69.983,175.29,70.006,110.329,0,178.975-72.263a235.788,235.788,0,0,0,49.234-77.881,265.611,265.611,0,0,0,9.58-29.845H555.617a137.452,137.452,0,0,1-14.692,29.845Z" transform="translate(-195.503 -254.277)" fill="#fff"/>
</svg>
