<svg id="mb-intro-letter" xmlns="http://www.w3.org/2000/svg" width="377.069" height="448.484" viewBox="0 0 377.069 448.484">
  <path id="Path_1" data-name="Path 1" d="M563.722,399.118Q551.4,350.532,521.74,315.07q-50.869-60.792-133.277-60.793-87.188,0-140.073,63.505a207.111,207.111,0,0,0-23.364,34.624,213.088,213.088,0,0,0-11.788,25.849h99.472c.283-.479.566-.918.885-1.356a94.02,94.02,0,0,1,24.248-24.493c13.77-9.374,29.877-14.081,48.214-14.081q44.285,0,69.771,37.5,22.673,33.388,25.2,90.43c.212,4.707.318,9.534.318,14.52,0,3.869-.071,7.619-.248,11.329h91.081c.283-5.5.389-11.089.389-16.754q0-41.526-8.85-76.23ZM461,572.72a109.078,109.078,0,0,1-5.947,9.215q-26.337,36.439-71.152,36.459-43.435,0-70.3-37.5Q286.78,543.38,286.762,478.978q0-10.411.744-20.1a206.688,206.688,0,0,1,3.4-25.849h-91.79a345.988,345.988,0,0,0-3.61,51.1q0,40.089,8.85,73.956,12.584,48.406,43.222,84.048,52.036,60.613,134.728,60.633,84.8,0,137.561-62.588a209.261,209.261,0,0,0,37.841-67.454,251.535,251.535,0,0,0,7.363-25.849H472.288A125.8,125.8,0,0,1,461,572.72Z" transform="translate(-195.503 -254.277)" fill="#fff"/>
</svg>
