<svg xmlns="http://www.w3.org/2000/svg" width="706.322" height="840.095" viewBox="0 0 706.322 840.095">
  <g id="mb-submit-letter" transform="translate(0)">
    <path id="Path_1" data-name="Path 1" d="M885.247,525.591q-23.075-91.011-78.642-157.439Q711.319,254.277,556.952,254.277q-163.319,0-262.383,118.957A387.956,387.956,0,0,0,250.8,438.092a399.16,399.16,0,0,0-22.081,48.42H415.052c.531-.9,1.06-1.719,1.658-2.541q19.892-28.581,45.421-45.879c25.794-17.559,55.965-26.376,90.313-26.376q82.953,0,130.695,70.238Q725.61,544.5,730.351,651.347c.4,8.817.6,17.859.6,27.2,0,7.248-.133,14.271-.464,21.221H901.1c.531-10.311.729-20.772.729-31.383q0-77.786-16.578-142.793ZM692.82,850.78a204.317,204.317,0,0,1-11.141,17.261q-49.333,68.258-133.28,68.3-81.361,0-131.689-70.239-50.229-70.275-50.263-190.912,0-19.5,1.393-37.66a387.161,387.161,0,0,1,6.365-48.419H202.266a648.1,648.1,0,0,0-6.763,95.719q0,75.095,16.577,138.534,23.573,90.674,80.963,157.438,97.473,113.539,252.372,113.577,158.844,0,257.677-117.238Q849.441,922.1,873.976,850.78a471.162,471.162,0,0,0,13.793-48.42h-173.8a235.65,235.65,0,0,1-21.153,48.42Z" transform="translate(-195.503 -254.277)" fill="#fff"/>
  </g>
</svg>
