<svg xmlns="http://www.w3.org/2000/svg" width="530.68" height="540.941" viewBox="0 0 530.68 540.941">
  <g id="mb-works-hero-letter" transform="translate(-3578.66 -180.988)">
    <path id="Path_274" data-name="Path 274" d="M713.727,565.173Q696.39,504.492,654.642,460.2,583.05,384.277,467.07,384.277q-122.706,0-197.136,79.313a259.276,259.276,0,0,0-32.882,43.244,252.875,252.875,0,0,0-16.59,32.283H360.456c.4-.6.8-1.146,1.245-1.694a125.821,125.821,0,0,1,34.126-30.589c19.38-11.708,42.048-17.586,67.855-17.586q62.325,0,98.195,46.831,31.91,41.7,35.472,112.941c.3,5.879.448,11.907.448,18.134,0,4.832-.1,9.515-.349,14.149H725.635c.4-6.875.548-13.849.548-20.924q0-51.862-12.455-95.206ZM569.151,762.805a135.548,135.548,0,0,1-8.37,11.508q-37.065,45.51-100.137,45.535-61.129,0-98.942-46.831-37.739-46.856-37.764-127.289,0-13,1.047-25.109a230.715,230.715,0,0,1,4.782-32.283H200.584a384.377,384.377,0,0,0-5.081,63.819q0,50.069,12.455,92.366a249.348,249.348,0,0,0,60.83,104.97q73.234,75.7,189.614,75.726,119.344,0,193.6-78.168a255.055,255.055,0,0,0,53.257-84.245,287.326,287.326,0,0,0,10.363-32.283H585.044a148.684,148.684,0,0,1-15.893,32.283Z" transform="translate(3383.157 -203.288)" fill="#fff"/>
  </g>
</svg>
