<svg xmlns="http://www.w3.org/2000/svg" width="33.434" height="38.079" viewBox="0 0 33.434 38.079">
  <g id="red-Logo" transform="translate(-81.392 -92)">
    <path id="Path_1" data-name="Path 1" d="M220.721,263.08a12.244,12.244,0,0,0-2.875-5.108,11.967,11.967,0,0,0-9.128-3.695,12.372,12.372,0,0,0-11.193,5.964,12.306,12.306,0,0,0-.807,1.571h6.812c.019-.029.039-.056.061-.082a6.123,6.123,0,0,1,1.661-1.489,6.268,6.268,0,0,1,3.3-.856,5.7,5.7,0,0,1,4.778,2.279,9.638,9.638,0,0,1,1.726,5.5c.015.286.022.579.022.882,0,.235,0,.463-.017.689H221.3c.019-.335.027-.674.027-1.018a16.713,16.713,0,0,0-.606-4.633Zm-7.035,10.551a6.59,6.59,0,0,1-.407.56,5.956,5.956,0,0,1-4.873,2.216,5.887,5.887,0,0,1-4.815-2.279,9.6,9.6,0,0,1-1.838-6.194q0-.633.051-1.222a11.229,11.229,0,0,1,.233-1.571H195.75a18.7,18.7,0,0,0-.247,3.106,15.83,15.83,0,0,0,.606,4.495,12.134,12.134,0,0,0,2.96,5.108,12.27,12.27,0,0,0,9.227,3.685,12.317,12.317,0,0,0,12.013-7.9,13.983,13.983,0,0,0,.5-1.571h-6.354A7.235,7.235,0,0,1,213.686,273.63Z" transform="translate(-110.306 -156.866)" fill="red"/>
    <path id="Path_2" data-name="Path 2" d="M84.267,126.99V108.275H85.48a14.365,14.365,0,0,1,.967-3.329H84.267V95.1h7.465V92H81.392v38.079H99.234V126.99H84.267Zm8.992-22.044a8.349,8.349,0,0,0-1.493,3.329h7.472v-3.329H93.259Z" transform="translate(0 0)" fill="red"/>
    <path id="Path_3" data-name="Path 3" d="M548.887,92v3.089h14.964v16.776h-.992a16.667,16.667,0,0,1-.487,3.329h1.479v11.78h-7.186v3.106h10.064V92H548.887Zm7.131,23.193a11.048,11.048,0,0,0,.6-3.329h-7.738v3.329Z" transform="translate(-451.903)" fill="red"/>
  </g>
</svg>
