<svg id="solid-globe-icon" xmlns="http://www.w3.org/2000/svg" width="26.113" height="26.113" viewBox="0 0 26.113 26.113">
  <path id="Icon_fa-solid-globe" data-name="Icon fa-solid-globe" d="M17.953,13.057a31.891,31.891,0,0,1-.168,3.264H8.329a30.5,30.5,0,0,1-.168-3.264,31.891,31.891,0,0,1,.168-3.264h9.456a30.5,30.5,0,0,1,.168,3.264Zm1.469-3.264H25.7a13.1,13.1,0,0,1,0,6.528H19.422a32.223,32.223,0,0,0,.163-3.264A32.223,32.223,0,0,0,19.422,9.792ZM25.164,8.16H19.212A17.939,17.939,0,0,0,16.392.428,13.082,13.082,0,0,1,25.159,8.16Zm-7.6,0H8.553A20.556,20.556,0,0,1,9.93,3.33,8.331,8.331,0,0,1,11.639.7,2.107,2.107,0,0,1,13.057,0a2.107,2.107,0,0,1,1.418.7A8.331,8.331,0,0,1,16.183,3.33,20.175,20.175,0,0,1,17.56,8.16ZM6.9,8.16H.949A13.09,13.09,0,0,1,9.721.428,17.939,17.939,0,0,0,6.9,8.16ZM.413,9.792H6.691a32.723,32.723,0,0,0,0,6.528H.413a13.1,13.1,0,0,1,0-6.528ZM9.93,22.778a20.2,20.2,0,0,1-1.377-4.825H17.56a20.438,20.438,0,0,1-1.377,4.825A8.331,8.331,0,0,1,14.474,25.4a2.1,2.1,0,0,1-1.418.709,2.107,2.107,0,0,1-1.418-.7A8.331,8.331,0,0,1,9.93,22.783ZM6.9,17.953a17.939,17.939,0,0,0,2.82,7.732A13.09,13.09,0,0,1,.949,17.953Zm18.264,0A13.093,13.093,0,0,1,16.4,25.685a18.005,18.005,0,0,0,2.82-7.732Z" transform="translate(0 0)" fill="#fff"/>
</svg>
