<svg xmlns="http://www.w3.org/2000/svg" width="863.789" height="911.715" viewBox="0 0 863.789 911.715">
  <g id="tb-hero-letter" transform="translate(0 0)">
    <path id="Path_1" data-name="Path 1" d="M1039.018,548.722q-28.219-98.77-96.174-170.861Q826.315,254.277,637.533,254.277q-199.729,0-320.879,129.1a422.038,422.038,0,0,0-53.521,70.388,411.614,411.614,0,0,0-27,52.548H464c.649-.973,1.3-1.865,2.027-2.757q24.328-31.018,55.547-49.79c31.545-19.056,68.442-28.625,110.447-28.625q101.447,0,159.832,76.226,51.94,67.873,57.738,183.834c.486,9.569.73,19.381.73,29.517,0,7.866-.162,15.488-.567,23.03H1058.4c.649-11.19.892-22.543.892-34.059q0-84.417-20.274-154.966ZM803.692,901.633a220.624,220.624,0,0,1-13.624,18.732q-60.331,74.077-162.994,74.118-99.5,0-161.048-76.226Q404.6,841.99,404.557,711.068q0-21.164,1.7-40.87a375.539,375.539,0,0,1,7.785-52.547H203.774a625.649,625.649,0,0,0-8.27,103.879q0,81.5,20.273,150.344,28.828,98.4,99.013,170.859,119.2,123.22,308.635,123.26,194.257,0,315.123-127.234a415.154,415.154,0,0,0,86.687-137.125,467.686,467.686,0,0,0,16.867-52.548H829.56a242.011,242.011,0,0,1-25.869,52.548Z" transform="translate(-195.503 -254.277)" fill="#fff"/>
  </g>
</svg>
