<svg xmlns="http://www.w3.org/2000/svg" width="471.027" height="250.616" viewBox="0 0 471.027 250.616">
  <g id="tb-intro-letter" transform="translate(2172.344 682.931)">
    <g id="Black-Logo" transform="translate(-1938.759 -682.931)">
      <path id="Path_1" data-name="Path 1" d="M201.076,335.215a112.576,112.576,0,0,1,26.437-46.967q32.032-33.971,83.925-33.971,54.9,0,88.2,35.487a116.005,116.005,0,0,1,14.712,19.348,113.148,113.148,0,0,1,7.423,14.445H359.14c-.178-.268-.356-.513-.557-.758a56.3,56.3,0,0,0-15.269-13.687c-8.671-5.238-18.814-7.869-30.36-7.869q-27.886,0-43.935,20.953-14.277,18.657-15.871,50.533c-.134,2.63-.2,5.328-.2,8.114,0,2.162.045,4.258.156,6.331H195.748c-.178-3.076-.245-6.2-.245-9.362a153.67,153.67,0,0,1,5.573-42.6Zm64.688,97.01a60.61,60.61,0,0,0,3.745,5.149q16.584,20.363,44.8,20.374,27.351,0,44.27-20.953,16.885-20.965,16.9-56.953,0-5.818-.468-11.235a103.255,103.255,0,0,0-2.14-14.444h57.8a171.975,171.975,0,0,1,2.273,28.555,145.551,145.551,0,0,1-5.573,41.327,111.567,111.567,0,0,1-27.217,46.967q-32.767,33.871-84.839,33.882-53.4,0-86.622-34.974a114.119,114.119,0,0,1-23.829-37.694,128.578,128.578,0,0,1-4.637-14.445h58.424a66.527,66.527,0,0,0,7.111,14.445Z" transform="translate(-195.503 -254.277)" fill="#fff"/>
    </g>
    <g id="Black-Logo-2" data-name="Black-Logo" transform="translate(-2172.344 -682.931)">
      <path id="Path_1-2" data-name="Path 1" d="M427.372,335.215a112.575,112.575,0,0,0-26.437-46.967Q368.9,254.277,317.01,254.277q-54.9,0-88.2,35.487a116.007,116.007,0,0,0-14.712,19.348,113.144,113.144,0,0,0-7.423,14.445h62.638c.179-.268.356-.513.557-.758a56.3,56.3,0,0,1,15.269-13.687c8.671-5.238,18.814-7.869,30.36-7.869q27.886,0,43.935,20.953,14.277,18.657,15.871,50.533c.134,2.63.2,5.328.2,8.114,0,2.162-.045,4.258-.156,6.331H432.7c.178-3.076.245-6.2.245-9.362a153.669,153.669,0,0,0-5.573-42.6Zm-64.688,97.01a60.63,60.63,0,0,1-3.745,5.149q-16.584,20.363-44.8,20.374-27.351,0-44.27-20.953-16.885-20.965-16.9-56.953,0-5.818.468-11.235a103.232,103.232,0,0,1,2.14-14.444h-57.8a171.982,171.982,0,0,0-2.273,28.555,145.55,145.55,0,0,0,5.573,41.327,111.566,111.566,0,0,0,27.217,46.967q32.767,33.871,84.839,33.882,53.4,0,86.622-34.974a114.119,114.119,0,0,0,23.829-37.694,128.559,128.559,0,0,0,4.637-14.445H369.8a66.526,66.526,0,0,1-7.111,14.445Z" transform="translate(-195.503 -254.277)" fill="#fff"/>
    </g>
  </g>
</svg>
