<svg xmlns="http://www.w3.org/2000/svg" width="1035.397" height="1052.844" viewBox="0 0 1035.397 1052.844">
  <g id="tb-submit-letter" transform="translate(0 -40)">
    <path id="Path_1" data-name="Path 1" d="M1206.6,647.219q-33.825-118.392-115.28-204.805Q951.637,294.277,725.351,294.277q-239.409,0-384.627,154.746a505.865,505.865,0,0,0-64.154,84.371A493.367,493.367,0,0,0,244.2,596.382H517.339c.779-1.167,1.554-2.236,2.43-3.305q29.16-37.18,66.583-59.682c37.812-22.842,82.039-34.312,132.39-34.312q121.6,0,191.585,91.37,62.259,81.358,69.209,220.356c.582,11.47.875,23.231.875,35.382,0,9.428-.195,18.565-.68,27.605h250.1c.777-13.414,1.068-27.022,1.068-40.825q0-101.188-24.3-185.753ZM924.519,1030.242a264.369,264.369,0,0,1-16.331,22.453q-72.317,88.794-195.375,88.843-119.268,0-193.043-91.37-73.631-91.419-73.68-248.351,0-25.369,2.042-48.99a450.147,450.147,0,0,1,9.331-62.987H205.417A749.947,749.947,0,0,0,195.5,814.357q0,97.688,24.3,180.213,34.555,117.954,118.683,204.8,142.886,147.7,369.951,147.747,232.849,0,377.729-152.511a497.63,497.63,0,0,0,103.908-164.367,560.638,560.638,0,0,0,20.218-62.988H955.527a290.093,290.093,0,0,1-31.008,62.988Z" transform="translate(-195.503 -254.277)" fill="#fff"/>
  </g>
</svg>
