<svg xmlns="http://www.w3.org/2000/svg" width="925.024" height="549.665" viewBox="0 0 925.024 549.665">
  <g id="tb-works-hero-letter" transform="translate(-2689.988 -137)">
    <g id="Black-Logo" transform="translate(2689.988 137)">
      <path id="Path_1" data-name="Path 1" d="M206.934,165.959q15.91-47.527,54.224-82.216,65.7-59.467,172.137-59.467,112.609,0,180.914,62.12a210.029,210.029,0,0,1,30.176,33.869,189.21,189.21,0,0,1,15.225,25.285H531.136a16.952,16.952,0,0,0-1.143-1.327,111.487,111.487,0,0,0-31.318-23.958c-17.785-9.17-38.588-13.774-62.271-13.774q-57.2,0-90.115,36.679Q317,175.831,313.736,231.63c-.274,4.6-.411,9.326-.411,14.2,0,3.785.092,7.453.32,11.082H196.006c-.366-5.385-.5-10.847-.5-16.389q0-40.62,11.43-74.568ZM339.614,446.736a108.694,108.694,0,0,0,7.682,9.014q34.015,35.645,91.9,35.664,56.1,0,90.8-36.679,34.633-36.7,34.656-99.7a195.236,195.236,0,0,0-.96-19.666,156.17,156.17,0,0,0-4.389-25.285H677.853a258.018,258.018,0,0,1,4.663,49.985q0,39.215-11.43,72.343-16.253,47.351-55.824,82.215-67.208,59.291-174.011,59.311-109.524,0-177.669-61.223-31.958-28.738-48.875-65.983a202.243,202.243,0,0,1-9.51-25.285H325.029a110.529,110.529,0,0,0,14.585,25.285Z" transform="translate(-195.503 -24.277)" fill="#fff"/>
    </g>
    <g id="Black-Logo-2" data-name="Black-Logo" transform="translate(3128 137)">
      <path id="Path_1-2" data-name="Path 1" d="M671.085,165.959q-15.91-47.527-54.224-82.216-65.7-59.467-172.137-59.467-112.609,0-180.914,62.12a210.029,210.029,0,0,0-30.176,33.869,189.21,189.21,0,0,0-15.225,25.285H346.883a16.952,16.952,0,0,1,1.143-1.327,111.487,111.487,0,0,1,31.318-23.958c17.785-9.17,38.588-13.774,62.271-13.774q57.2,0,90.115,36.679,29.284,32.66,32.553,88.458c.274,4.6.411,9.326.411,14.2,0,3.785-.091,7.453-.32,11.082H682.013c.366-5.385.5-10.847.5-16.389q0-40.62-11.43-74.568ZM538.405,446.736a108.694,108.694,0,0,1-7.682,9.014q-34.015,35.645-91.9,35.664-56.1,0-90.8-36.679-34.633-36.7-34.656-99.7a195.236,195.236,0,0,1,.96-19.666,156.17,156.17,0,0,1,4.389-25.285H200.166a258.018,258.018,0,0,0-4.663,49.985q0,39.215,11.43,72.343,16.253,47.351,55.824,82.215,67.208,59.291,174.011,59.311,109.524,0,177.669-61.223,31.958-28.738,48.875-65.983a202.253,202.253,0,0,0,9.51-25.285H552.99a110.528,110.528,0,0,1-14.585,25.285Z" transform="translate(-195.503 -24.277)" fill="#fff"/>
    </g>
  </g>
</svg>
