<svg xmlns="http://www.w3.org/2000/svg" width="33.178" height="33.04" viewBox="0 0 33.178 33.04">
  <g id="Twitter-black" transform="translate(0.5 0.5)">
    <path id="Path_85" data-name="Path 85" d="M2238.029,1092.291a16.055,16.055,0,0,1-14.257,15.917,16.314,16.314,0,0,1-1.833.1h-.119a16.206,16.206,0,0,1-3.189-.339,16.029,16.029,0,1,1,19.4-15.68" transform="translate(-2205.85 -1076.27)" fill="none" stroke="#ddd" stroke-width="1"/>
    <path id="logo" d="M12.172,12.051l7.614,8.85h-1.8L11.37,13.217,6.09,20.9H0L7.985,9.281,0,0H1.8L8.786,8.115,14.362,0h6.09L12.171,12.051ZM9.7,9.179l-.809,1.157L2.454,19.543H5.226l5.195-7.431.809-1.157L17.982,1.3H15.211L9.7,9.178Z" transform="translate(5.863 5.569)" fill="#fff"/>
  </g>
</svg>
